<svg width="46" height="46" viewBox="0 0 46 46" fill="none" xmlns="http://www.w3.org/2000/svg">
<g id="Icon">
<path id="Icon_2" fill-rule="evenodd" clip-rule="evenodd" d="M23 0C35.7025 0 46 10.2975 46 23C46 35.7025 35.7025 46 23 46C10.2975 46 0 35.7025 0 23C0 10.2975 10.2975 0 23 0ZM23 1C10.8497 1 1 10.8497 1 23C1 35.1503 10.8497 45 23 45C35.1503 45 45 35.1503 45 23C45 10.8497 35.1503 1 23 1ZM14.68 25.944C14.6427 25.9813 14.5947 26 14.536 26H13.816C13.7627 26 13.7173 25.9813 13.68 25.944C13.6427 25.9067 13.624 25.8613 13.624 25.808V20.6C13.624 20.5413 13.6413 20.4933 13.676 20.456C13.7107 20.4187 13.7573 20.4 13.816 20.4H17.296C17.3547 20.4 17.4027 20.4187 17.44 20.456C17.4773 20.4933 17.496 20.5413 17.496 20.6V21.176C17.496 21.2293 17.4773 21.2747 17.44 21.312C17.4027 21.3493 17.3547 21.368 17.296 21.368H14.736V22.872H17.136C17.1947 22.872 17.2427 22.8907 17.28 22.928C17.3173 22.9653 17.336 23.0107 17.336 23.064V23.64C17.336 23.6933 17.3173 23.7387 17.28 23.776C17.2427 23.8133 17.1947 23.832 17.136 23.832H14.736V25.808C14.736 25.8613 14.7173 25.9067 14.68 25.944ZM19.512 25.944C19.4747 25.9813 19.4267 26 19.368 26H18.632C18.5787 26 18.5333 25.9813 18.496 25.944C18.4587 25.9067 18.44 25.8613 18.44 25.808V20.6C18.44 20.5413 18.4573 20.4933 18.492 20.456C18.5267 20.4187 18.5733 20.4 18.632 20.4H20.704C21.36 20.4 21.8733 20.552 22.244 20.856C22.6147 21.16 22.8 21.592 22.8 22.152C22.8 22.5413 22.7067 22.868 22.52 23.132C22.3333 23.396 22.072 23.5867 21.736 23.704L22.896 25.744C22.912 25.776 22.92 25.8053 22.92 25.832C22.92 25.88 22.9027 25.92 22.868 25.952C22.8333 25.984 22.7947 26 22.752 26H22.016C21.9307 26 21.864 25.98 21.816 25.94C21.768 25.9 21.7253 25.848 21.688 25.784L20.664 23.888H19.568V25.808C19.568 25.8613 19.5493 25.9067 19.512 25.944ZM19.568 22.976H20.68C21 22.976 21.24 22.9053 21.4 22.764C21.56 22.6227 21.64 22.416 21.64 22.144C21.64 21.872 21.56 21.6627 21.4 21.516C21.24 21.3693 21 21.296 20.68 21.296H19.568V22.976ZM27.816 25.808C27.816 25.8667 27.7973 25.9133 27.76 25.948C27.7227 25.9827 27.6747 26 27.616 26H24.024C23.9707 26 23.9253 25.9813 23.888 25.944C23.8507 25.9067 23.832 25.8613 23.832 25.808V20.6C23.832 20.5413 23.8493 20.4933 23.884 20.456C23.9187 20.4187 23.9653 20.4 24.024 20.4H27.552C27.6107 20.4 27.6587 20.4187 27.696 20.456C27.7333 20.4933 27.752 20.5413 27.752 20.6V21.136C27.752 21.1947 27.7333 21.2413 27.696 21.276C27.6587 21.3107 27.6107 21.328 27.552 21.328H24.928V22.728H27.376C27.4347 22.728 27.4827 22.7467 27.52 22.784C27.5573 22.8213 27.576 22.8693 27.576 22.928V23.432C27.576 23.4907 27.5573 23.5373 27.52 23.572C27.4827 23.6067 27.4347 23.624 27.376 23.624H24.928V25.072H27.616C27.6747 25.072 27.7227 25.0893 27.76 25.124C27.7973 25.1587 27.816 25.2053 27.816 25.264V25.808ZM32.8 25.808C32.8 25.8667 32.7813 25.9133 32.744 25.948C32.7067 25.9827 32.6587 26 32.6 26H29.008C28.9547 26 28.9093 25.9813 28.872 25.944C28.8347 25.9067 28.816 25.8613 28.816 25.808V20.6C28.816 20.5413 28.8333 20.4933 28.868 20.456C28.9027 20.4187 28.9493 20.4 29.008 20.4H32.536C32.5947 20.4 32.6427 20.4187 32.68 20.456C32.7173 20.4933 32.736 20.5413 32.736 20.6V21.136C32.736 21.1947 32.7173 21.2413 32.68 21.276C32.6427 21.3107 32.5947 21.328 32.536 21.328H29.912V22.728H32.36C32.4187 22.728 32.4667 22.7467 32.504 22.784C32.5413 22.8213 32.56 22.8693 32.56 22.928V23.432C32.56 23.4907 32.5413 23.5373 32.504 23.572C32.4667 23.6067 32.4187 23.624 32.36 23.624H29.912V25.072H32.6C32.6587 25.072 32.7067 25.0893 32.744 25.124C32.7813 25.1587 32.8 25.2053 32.8 25.264V25.808Z" fill="black"/>
</g>
</svg>
