<svg width="46" height="46" viewBox="0 0 46 46" fill="none" xmlns="http://www.w3.org/2000/svg">
<g id="Icon">
<path id="Icon_2" fill-rule="evenodd" clip-rule="evenodd" d="M23 0C35.7025 0 46 10.2975 46 23C46 35.7025 35.7025 46 23 46C10.2975 46 0 35.7025 0 23C0 10.2975 10.2975 0 23 0ZM23 1C10.8497 1 1 10.8497 1 23C1 35.1503 10.8497 45 23 45C35.1503 45 45 35.1503 45 23C45 10.8497 35.1503 1 23 1ZM32.4452 12.4578C32.4452 16.8946 36.1438 17.0354 36.5548 17.0354C36.7945 17.0354 37 17.2467 37 17.4932C37 17.7749 36.7945 17.9862 36.5548 17.9862H36.5205C36.1096 17.9862 32.411 18.127 32.411 22.5638C32.411 22.8455 32.2055 23.0568 32 22.9864C31.7603 22.9864 31.5548 22.7751 31.5548 22.5286C31.5548 18.0918 27.8904 17.9509 27.4452 17.9509C27.2055 17.9509 27 17.7397 27 17.4932C27 17.2467 27.1712 17.0706 27.411 17.0354H27.4452C27.8562 17.0354 31.5548 16.8946 31.5548 12.4578C31.5548 12.2113 31.7603 12 32 12C32.2397 12 32.4452 12.2113 32.4452 12.4578ZM29.5 17.5284C30.4247 17.9509 31.3836 18.6904 31.9658 20.0285C32.5137 18.7608 33.4384 17.9509 34.4315 17.5284C33.5069 17.1058 32.5137 16.3664 31.9658 15.0283C31.4178 16.2959 30.4932 17.1058 29.5 17.5284ZM28.539 25.0151C28.6767 25.051 28.8488 25.1229 28.9176 25.2665C29.0209 25.4102 29.0209 25.5898 28.952 25.7335C28.8488 25.8771 28.7111 25.9849 28.539 25.9849C27.7473 25.9849 20.9665 26.3081 20.9665 34.5331C20.9665 34.7845 20.76 35 20.519 35C20.2781 35 20.0716 34.7845 20.0716 34.5331C20.0716 26.2722 13.2908 25.9849 12.4991 25.9849H12.4647C12.2926 25.9849 12.1205 25.8771 12.0516 25.7335C11.9828 25.5898 11.9828 25.4102 12.0516 25.2665C12.0621 25.2557 12.0725 25.2415 12.0838 25.226C12.11 25.1904 12.1413 25.1479 12.1893 25.1229C12.2582 25.051 12.3614 25.0151 12.4647 25.0151C13.2219 25.0151 20.0372 24.7278 20.0372 16.4669C20.0372 16.2155 20.2437 16 20.4846 16C20.7256 16 20.9321 16.2155 20.9321 16.4669C20.9321 24.7278 27.7473 25.0151 28.539 25.0151ZM15.115 25.482C17.0426 26.1285 19.4864 27.6011 20.4846 31.0132C21.4828 27.6011 23.9267 26.1285 25.8542 25.482C23.9267 24.8355 21.4828 23.3629 20.4846 19.9509C19.4864 23.3629 17.0426 24.8355 15.115 25.482Z" fill="black"/>
</g>
</svg>
