<svg width="24" height="24" viewBox="0 0 24 24" fill="none" xmlns="http://www.w3.org/2000/svg">
<g id="Icons/ Arrows /Defaults_left Copy 3">
<path id="arrow" fill-rule="evenodd" clip-rule="evenodd" d="M7.85981 8.11673C7.6729 7.96109 7.36985 7.96109 7.18293 8.11673L2.14019 12.3158L2.084 12.3719C1.95329 12.53 1.97541 12.7488 2.14834 12.8861L7.19108 16.8899L7.25866 16.9347C7.44823 17.0386 7.70562 17.0181 7.86777 16.8765L7.92156 16.8202C8.04631 16.6624 8.02172 16.448 7.85166 16.313L3.67891 13H22.5238L22.6094 12.9919C22.8315 12.9496 23 12.7455 23 12.5C23 12.2239 22.7868 12 22.5238 12H3.87229L7.85981 8.68037L7.91519 8.62517C8.04442 8.46984 8.02596 8.25508 7.85981 8.11673Z" fill="#E6E6EB"/>
</g>
</svg>
