<svg width="46" height="46" viewBox="0 0 46 46" fill="none" xmlns="http://www.w3.org/2000/svg">
<g id="Icon">
<path id="Icon_2" fill-rule="evenodd" clip-rule="evenodd" d="M23 0C35.7025 0 46 10.2975 46 23C46 35.7025 35.7025 46 23 46C10.2975 46 0 35.7025 0 23C0 10.2975 10.2975 0 23 0ZM23 1C10.8497 1 1 10.8497 1 23C1 35.1503 10.8497 45 23 45C35.1503 45 45 35.1503 45 23C45 10.8497 35.1503 1 23 1ZM31.4011 18.1812C31.0418 17.8092 30.5456 17.5894 29.981 17.5894H27.1407V17.5556C27.1407 17.1329 26.9696 16.7271 26.6787 16.4565C26.3878 16.1691 25.9943 16 25.5665 16H20.4335C19.9886 16 19.5951 16.1691 19.3042 16.4565C19.0133 16.744 18.8422 17.1329 18.8422 17.5556V17.5894H16.019C15.4544 17.5894 14.9582 17.8092 14.5989 18.1812C14.2395 18.5362 14 19.0435 14 19.5845V28.0048C14 28.5628 14.2224 29.0531 14.5989 29.4082C14.9582 29.7633 15.4715 30 16.019 30H29.981C30.5456 30 31.0418 29.7802 31.4011 29.4082C31.7605 29.0531 32 28.5459 32 28.0048V19.5845C32 19.0266 31.7776 18.5362 31.4011 18.1812ZM31.1103 28.0048H31.0932C31.0932 28.3092 30.9734 28.5797 30.7681 28.7826C30.5627 28.9855 30.289 29.1039 29.981 29.1039H16.019C15.711 29.1039 15.4373 28.9855 15.2319 28.7826C15.0266 28.5797 14.9068 28.3092 14.9068 28.0048V19.5845C14.9068 19.2802 15.0266 19.0097 15.2319 18.8068C15.4373 18.6039 15.711 18.4855 16.019 18.4855H19.3213C19.5779 18.4855 19.7833 18.2826 19.7833 18.029V17.5386C19.7833 17.3527 19.8517 17.1836 19.9715 17.0652C20.0913 16.9469 20.2624 16.8792 20.4506 16.8792H25.5665C25.7548 16.8792 25.9259 16.9469 26.0456 17.0652C26.1654 17.1836 26.2338 17.3527 26.2338 17.5386V18.029C26.2338 18.2826 26.4392 18.4855 26.6958 18.4855H29.9981C30.3061 18.4855 30.5798 18.6039 30.7852 18.8068C30.9905 19.0097 31.1103 19.2802 31.1103 19.5845V28.0048ZM23 20C21.8943 20 20.8862 20.4553 20.1707 21.1707C19.439 21.9024 19 22.8943 19 24C19 25.1057 19.4553 26.1138 20.1707 26.8293C20.9024 27.561 21.8943 28 23 28C24.1057 28 25.1138 27.5447 25.8293 26.8293C26.561 26.0976 27 25.1057 27 24C27 22.8943 26.5447 21.8862 25.8293 21.1707C25.1138 20.4553 24.1057 20 23 20ZM25.2114 26.2276C24.6423 26.7805 23.8618 27.1382 23 27.1382C22.1382 27.1382 21.3577 26.7805 20.7886 26.2276C20.2195 25.6585 19.878 24.878 19.878 24.0163C19.878 23.1545 20.2358 22.374 20.7886 21.8049C21.3577 21.2358 22.1382 20.8943 23 20.8943C23.8618 20.8943 24.6423 21.252 25.2114 21.8049C25.7805 22.374 26.122 23.1545 26.122 24.0163C26.1382 24.878 25.7805 25.6585 25.2114 26.2276ZM29 21C29.5523 21 30 20.5523 30 20C30 19.4477 29.5523 19 29 19C28.4477 19 28 19.4477 28 20C28 20.5523 28.4477 21 29 21Z" fill="black"/>
</g>
</svg>
